<?xml version="1.0" standalone="no"?>
<!DOCTYPE svg PUBLIC "-//W3C//DTD SVG 20010904//EN"
 "http://www.w3.org/TR/2001/REC-SVG-20010904/DTD/svg10.dtd">
<svg version="1.0" xmlns="http://www.w3.org/2000/svg"
 width="512.000000pt" height="512.000000pt" viewBox="0 0 512.000000 512.000000"
 preserveAspectRatio="xMidYMid meet">
<metadata>
Created by potrace 1.14, written by Peter Selinger 2001-2017
</metadata>
<g transform="translate(0.000000,512.000000) scale(0.100000,-0.100000)"
fill="#000000" stroke="none">
<path d="M965 5100 c-53 -26 -79 -68 -105 -165 -44 -165 -115 -222 -288 -229
-97 -4 -149 -29 -183 -90 -24 -41 -24 -42 -24 -391 0 -192 3 -362 8 -377 4
-14 19 -40 33 -58 44 -52 81 -61 254 -62 163 0 199 -8 220 -47 6 -13 10 -257
10 -713 0 -381 4 -698 8 -705 4 -6 20 -18 36 -27 33 -17 79 -6 93 22 4 9 10
303 13 652 l5 634 93 47 c167 84 365 142 547 161 l30 3 1 -1406 1 -1407 -36
10 c-143 37 -331 109 -498 189 l-143 69 0 376 c0 337 -2 379 -17 405 -10 16
-24 29 -33 30 -8 0 -23 2 -32 4 -9 2 -29 -8 -43 -20 l-25 -24 0 -923 c1 -1033
-4 -960 73 -1022 l39 -31 359 -3 c338 -3 362 -2 403 17 30 13 54 34 73 62 l28
43 2 2420 c1 1610 -1 2432 -8 2453 -15 47 -47 83 -93 104 -37 17 -72 19 -401
19 -340 0 -362 -1 -400 -20z m748 -152 c3 -13 4 -252 3 -533 l-1 -510 -40 -2
c-141 -10 -433 -91 -568 -159 -37 -19 -70 -34 -72 -34 -2 0 -12 16 -21 35 -21
46 -95 110 -136 120 -18 5 -104 9 -192 11 -105 1 -161 6 -166 13 -9 16 -7 647
3 657 4 4 39 9 78 11 126 5 199 35 281 111 57 53 102 135 122 221 8 33 17 64
21 70 4 8 114 11 345 11 l338 0 5 -22z m-565 -3958 c138 -67 301 -127 542
-199 l25 -8 2 -299 c1 -164 -1 -307 -4 -317 -4 -16 -26 -17 -336 -15 l-332 3
-3 442 -2 443 22 -9 c13 -5 51 -23 86 -41z"/>
<path d="M3477 5106 c-55 -20 -112 -62 -139 -104 -13 -20 -292 -572 -619
-1227 l-594 -1189 0 -406 0 -406 25 -37 c13 -20 43 -46 64 -58 39 -22 49 -23
328 -23 275 0 290 1 309 20 11 11 20 31 21 45 4 83 -9 87 -323 86 -141 0 -261
3 -268 7 -8 5 -11 108 -11 366 l0 359 265 530 264 530 28 -9 c15 -5 84 -25
153 -45 69 -20 177 -52 240 -72 63 -19 123 -37 133 -40 9 -3 17 -7 17 -9 0 -2
-78 -160 -174 -352 -95 -191 -177 -362 -181 -381 -9 -44 11 -114 44 -147 57
-57 60 -58 401 -59 369 -1 381 1 440 85 l25 35 3 328 c3 303 4 328 20 323 34
-10 213 -57 232 -62 11 -2 28 -6 38 -8 117 -27 152 -35 182 -40 19 -3 46 -8
60 -11 14 -3 43 -8 65 -10 22 -3 49 -7 60 -9 20 -3 20 -11 20 -955 1 -523 -2
-956 -5 -961 -14 -23 -651 -222 -665 -208 -2 2 -5 159 -7 349 l-3 346 -27 40
c-50 76 -59 78 -436 79 -355 1 -363 0 -381 -50 -11 -28 6 -74 32 -88 14 -7
124 -11 334 -12 258 -1 315 -4 322 -15 5 -8 9 -349 9 -757 0 -733 0 -744 21
-786 11 -24 37 -54 58 -68 l37 -25 358 -3 c337 -3 361 -2 403 17 29 13 53 34
72 62 l28 43 0 1785 1 1785 -21 25 c-28 31 -78 33 -107 4 -20 -20 -21 -32 -21
-237 l-1 -216 -27 0 c-14 0 -51 5 -80 10 -30 6 -68 13 -85 16 -18 3 -121 28
-230 55 -110 28 -211 53 -226 56 l-28 5 0 285 c0 242 -2 290 -16 319 -34 71
-113 97 -184 62 -38 -19 -47 -32 -163 -264 -67 -135 -128 -244 -135 -244 -13
0 -553 160 -560 165 -2 2 130 268 292 592 219 438 303 597 326 616 l31 26 534
1 c420 0 535 -2 542 -12 4 -7 8 -225 9 -484 0 -535 -1 -524 73 -524 26 0 44 7
57 21 18 20 19 43 19 523 l0 502 -28 43 c-55 83 -36 81 -662 80 -437 0 -558
-3 -588 -13z m301 -1836 c0 -453 -3 -622 -12 -627 -6 -4 -141 -8 -299 -8 -251
0 -290 2 -297 15 -6 11 82 197 298 628 169 337 308 612 309 612 1 0 1 -279 1
-620z m828 -2669 c-1 -290 -4 -433 -12 -441 -7 -7 -115 -9 -335 -8 l-324 3 -3
338 c-2 265 0 338 10 342 7 2 81 22 163 44 83 22 224 65 315 95 91 29 170 54
176 55 7 1 10 -134 10 -428z"/>
</g>
</svg>
